<!-- Exported by Character Map UWP -->
<svg height="100%" viewBox="64 189 898 832" width="100%" xmlns="http://www.w3.org/2000/svg" xmlns:xlink="http://www.w3.org/1999/xlink">
  <path d="M167.936,188.416C139.264,188.416 114.688,198.656 94.208,219.136C73.728,239.616 63.488,264.192 63.488,292.864L63.488,788.48C63.488,817.152 73.728,841.728 94.208,862.208C114.688,882.688 139.264,892.928 167.936,892.928L385.024,892.928L385.024,956.416L288.768,956.416C276.48,956.416 266.923,961.877 260.096,972.8C253.269,983.723 253.269,994.304 260.096,1004.54C266.923,1014.78 276.48,1019.9 288.768,1019.9L735.232,1019.9C748.885,1019.9 758.784,1014.78 764.928,1004.54C771.072,994.304 771.072,983.723 764.928,972.8C758.784,961.877 748.885,956.416 735.232,956.416L641.024,956.416L641.024,892.928L856.064,892.928C884.736,892.928 909.312,882.688 929.792,862.208C950.272,841.728 960.512,817.152 960.512,788.48L960.512,292.864C960.512,264.192 950.272,239.616 929.792,219.136C909.312,198.656 884.736,188.416 856.064,188.416ZM575.488,892.928L575.488,956.416L448.512,956.416L448.512,892.928ZM129.024,292.864C129.024,281.941 132.779,272.384 140.288,264.192C147.797,256 157.013,251.904 167.936,251.904L856.064,251.904C866.987,251.904 876.544,256 884.736,264.192C892.928,272.384 897.024,281.941 897.024,292.864L897.024,788.48C897.024,799.403 892.928,808.619 884.736,816.128C876.544,823.637 866.987,827.392 856.064,827.392L167.936,827.392C157.013,827.392 147.797,823.637 140.288,816.128C132.779,808.619 129.024,799.403 129.024,788.48Z" fill="#FFFFFF" fill-opacity="1">
  </path>
</svg>