<!-- Exported by Character Map UWP -->
<svg height="100%" viewBox="103 297 820 615" width="100%" xmlns="http://www.w3.org/2000/svg" xmlns:xlink="http://www.w3.org/1999/xlink">
  <path d="M307.2,782.336C307.2,775.509 309.589,769.707 314.368,764.928C319.147,760.149 324.949,757.76 331.776,757.76L385.024,757.76C391.851,757.76 397.653,760.149 402.432,764.928C407.211,769.707 409.6,775.851 409.6,783.36C409.6,790.869 407.211,797.013 402.432,801.792C397.653,806.571 391.851,808.96 385.024,808.96L333.824,808.96C325.632,808.96 319.147,806.571 314.368,801.792C309.589,797.013 307.2,791.211 307.2,784.384ZM641.024,757.76C632.832,757.76 626.347,760.149 621.568,764.928C616.789,769.707 614.4,775.851 614.4,783.36C614.4,790.869 616.789,797.013 621.568,801.792C626.347,806.571 632.149,808.96 638.976,808.96L692.224,808.96C699.051,808.96 704.853,806.571 709.632,801.792C714.411,797.013 716.8,790.869 716.8,783.36C716.8,775.851 714.411,769.707 709.632,764.928C704.853,760.149 699.051,757.76 692.224,757.76ZM204.8,296.96L819.2,296.96C847.872,296.96 872.107,306.859 891.904,326.656C911.701,346.453 921.6,370.688 921.6,399.36L921.6,808.96C921.6,837.632 911.701,861.867 891.904,881.664C872.107,901.461 847.872,911.36 819.2,911.36L204.8,911.36C176.128,911.36 151.893,901.461 132.096,881.664C112.299,861.867 102.4,837.632 102.4,808.96L102.4,399.36C102.4,370.688 112.299,346.453 132.096,326.656C151.893,306.859 176.128,296.96 204.8,296.96ZM487.424,348.16L204.8,348.16C191.147,348.16 179.2,353.28 168.96,363.52C158.72,373.76 153.6,385.707 153.6,399.36L153.6,808.96C153.6,822.613 158.72,834.56 168.96,844.8C179.2,855.04 191.147,860.16 204.8,860.16L487.424,860.16ZM538.624,860.16L819.2,860.16C832.853,860.16 844.8,855.04 855.04,844.8C865.28,834.56 870.4,822.613 870.4,808.96L870.4,399.36C870.4,385.707 865.28,373.76 855.04,363.52C844.8,353.28 832.853,348.16 819.2,348.16L538.624,348.16Z" fill="#FFFFFF" fill-opacity="1">
  </path>
</svg>