<!-- Exported by Character Map UWP -->
<svg height="100%" viewBox="256 179 513 852" width="100%" xmlns="http://www.w3.org/2000/svg" xmlns:xlink="http://www.w3.org/1999/xlink">
  <path d="M468.992,774.144C458.069,774.144 448.171,778.581 439.296,787.456C430.421,796.331 425.984,806.571 425.984,818.176C425.984,829.781 430.421,839.68 439.296,847.872C448.171,856.064 458.069,860.16 468.992,860.16L555.008,860.16C565.931,860.16 575.829,856.064 584.704,847.872C593.579,839.68 598.016,829.781 598.016,818.176C598.016,806.571 593.579,796.331 584.704,787.456C575.829,778.581 565.931,774.144 555.008,774.144ZM385.024,178.176C349.525,178.176 319.147,190.464 293.888,215.04C268.629,239.616 256,269.653 256,305.152L256,903.168C256,938.667 268.629,968.704 293.888,993.28C319.147,1017.86 348.843,1030.14 382.976,1030.14L641.024,1030.14C675.157,1030.14 704.853,1017.86 730.112,993.28C755.371,968.704 768,938.667 768,903.168L768,305.152C768,269.653 755.371,239.616 730.112,215.04C704.853,190.464 675.157,178.176 641.024,178.176ZM342.016,305.152C342.016,294.229 346.112,284.331 354.304,275.456C362.496,266.581 372.736,262.144 385.024,262.144L641.024,262.144C651.947,262.144 661.504,266.581 669.696,275.456C677.888,284.331 681.984,294.229 681.984,305.152L681.984,903.168C681.984,914.091 677.888,923.989 669.696,932.864C661.504,941.739 651.947,946.176 641.024,946.176L385.024,946.176C372.736,946.176 362.496,941.739 354.304,932.864C346.112,923.989 342.016,914.091 342.016,903.168Z" fill="#FFFFFF" fill-opacity="1">
  </path>
</svg>