<!-- Exported by Character Map UWP -->
<svg height="100%" viewBox="150 199 725 811" width="100%" xmlns="http://www.w3.org/2000/svg" xmlns:xlink="http://www.w3.org/1999/xlink">
  <path d="M610.304,264.192C602.112,243.712 589.141,227.669 571.392,216.064C553.643,204.459 533.845,198.656 512,198.656C490.155,198.656 470.357,204.459 452.608,216.064C434.859,227.669 421.888,243.712 413.696,264.192L157.696,860.16C150.869,877.909 148.48,896.341 150.528,915.456C152.576,934.571 159.403,951.637 171.008,966.656C182.613,981.675 196.949,992.939 214.016,1000.45C231.083,1007.96 249.173,1010.69 268.288,1008.64C287.403,1006.59 304.469,999.765 319.488,988.16C334.507,976.555 346.112,961.877 354.304,944.128L399.36,839.68L624.64,839.68L669.696,944.128C681.984,971.435 701.781,990.549 729.088,1001.47C756.395,1012.39 783.36,1012.05 809.984,1000.45C836.608,988.843 855.381,969.387 866.304,942.08C877.227,914.773 877.227,887.467 866.304,860.16ZM532.48,624.64L512,575.488L491.52,624.64ZM550.912,288.768L733.184,714.752L806.912,886.784C812.373,897.707 812.715,908.629 807.936,919.552C803.157,930.475 795.307,937.984 784.384,942.08C773.461,946.176 762.539,946.176 751.616,942.08C740.693,937.984 733.184,930.475 729.088,919.552L667.648,774.144L356.352,774.144L294.912,919.552C288.085,934.571 276.821,943.104 261.12,945.152C245.419,947.2 232.448,941.739 222.208,928.768C211.968,915.797 210.261,901.803 217.088,886.784L473.088,288.768C475.819,280.576 480.939,274.091 488.448,269.312C495.957,264.533 503.808,262.144 512,262.144C520.192,262.144 528.043,264.533 535.552,269.312C543.061,274.091 548.181,280.576 550.912,288.768ZM630.784,690.176L393.216,690.176L512,413.696Z" fill="#FFFFFF" fill-opacity="1">
  </path>
</svg>