<!-- Exported by Character Map UWP -->
<svg height="100%" viewBox="127 220 771 771" width="100%" xmlns="http://www.w3.org/2000/svg" xmlns:xlink="http://www.w3.org/1999/xlink">
  <path d="M129.024,354.304C129.024,317.44 141.995,285.696 167.936,259.072C193.877,232.448 225.28,219.136 262.144,219.136L761.856,219.136C798.72,219.136 830.464,232.448 857.088,259.072C883.712,285.696 897.024,317.44 897.024,354.304L897.024,854.016C895.659,890.88 882.005,922.283 856.064,948.224C830.123,974.165 798.72,987.819 761.856,989.184L262.144,989.184C225.28,989.184 193.536,975.872 166.912,949.248C140.288,922.624 126.976,890.88 126.976,854.016L126.976,354.304ZM262.144,274.432C238.933,274.432 219.819,281.941 204.8,296.96C189.781,311.979 182.272,331.093 182.272,354.304L182.272,854.016C182.272,867.669 185.003,879.957 190.464,890.88L456.704,626.688C471.723,611.669 490.155,604.16 512,604.16C533.845,604.16 552.277,611.669 567.296,626.688L833.536,890.88C838.997,878.592 841.728,866.304 841.728,854.016L841.728,354.304C841.728,331.093 834.219,311.979 819.2,296.96C804.181,281.941 785.067,274.432 761.856,274.432ZM796.672,927.744L530.432,665.6C524.971,660.139 518.827,657.408 512,657.408C505.173,657.408 499.029,660.139 493.568,665.6L227.328,927.744C238.251,931.84 249.856,933.888 262.144,933.888L761.856,933.888C774.144,933.888 785.749,931.84 796.672,927.744ZM651.264,507.904C638.976,507.904 628.736,503.808 620.544,495.616C612.352,487.424 608.256,477.525 608.256,465.92C608.256,454.315 612.352,444.075 620.544,435.2C628.736,426.325 638.635,421.888 650.24,421.888C661.845,421.888 672.085,426.325 680.96,435.2C689.835,444.075 694.272,454.315 694.272,465.92C694.272,477.525 689.835,487.424 680.96,495.616C672.085,503.808 662.187,507.904 651.264,507.904ZM651.264,561.152C677.205,561.152 699.733,551.936 718.848,533.504C737.963,515.072 747.52,492.544 747.52,465.92C747.52,439.296 737.963,416.427 718.848,397.312C699.733,378.197 676.864,368.64 650.24,368.64C623.616,368.64 601.088,378.197 582.656,397.312C564.224,416.427 555.008,439.296 555.008,465.92C555.008,492.544 564.224,515.072 582.656,533.504C601.088,551.936 623.957,561.152 651.264,561.152Z" fill="#FFFFFF" fill-opacity="1">
  </path>
</svg>